HIERARCHY
ROOT HipCenter
{
    OFFSET 0.0 0.0 -0.0
    CHANNELS 6 Xposition Yposition Zposition Zrotation Xrotation Yrotation
    JOINT Spine
    {
        OFFSET 0.0 12.220197677612305 0.0
        CHANNELS 3 Zrotation Xrotation Yrotation
        JOINT ShoulderCenter
        {
            OFFSET 0.0 33.27177047729492 0.0
            CHANNELS 3 Zrotation Xrotation Yrotation
            JOINT LeftShoulder
            {
                OFFSET 17.754846572875977 0.0 0.0
                CHANNELS 3 Zrotation Xrotation Yrotation
                JOINT LeftElbow
                {
                    OFFSET 29.747600555419922 0.0 0.0
                    CHANNELS 3 Zrotation Xrotation Yrotation
                    JOINT LeftWrist
                    {
                        OFFSET 29.694660186767578 0.0 0.0
                        CHANNELS 3 Zrotation Xrotation Yrotation
                        JOINT LeftHand
                        {
                            OFFSET 4.491735458374023 0.0 0.0
                            CHANNELS 3 Zrotation Xrotation Yrotation
                            End Site
                            {
                                OFFSET 1.796694278717041 0.0 0.0
                            }
                        }
                    }
                }
            }
            JOINT RightShoulder
            {
                OFFSET -17.754846572875977 0.0 0.0
                CHANNELS 3 Zrotation Xrotation Yrotation
                JOINT RightElbow
                {
                    OFFSET -29.747600555419922 0.0 0.0
                    CHANNELS 3 Zrotation Xrotation Yrotation
                    JOINT RightWrist
                    {
                        OFFSET -29.694660186767578 0.0 0.0
                        CHANNELS 3 Zrotation Xrotation Yrotation
                        JOINT RightHand
                        {
                            OFFSET -4.491735458374023 0.0 0.0
                            CHANNELS 3 Zrotation Xrotation Yrotation
                            End Site
                            {
                                OFFSET -1.796694278717041 0.0 0.0
                            }
                        }
                    }
                }
            }
            End Site
            {
                OFFSET 0.0 13.308709144592285 0.0
            }
        }
    }
    JOINT LeftHip
    {
        OFFSET 13.283145904541016 0.0 0.0
        CHANNELS 3 Zrotation Xrotation Yrotation
        JOINT LeftKnee
        {
            OFFSET 0.0 -42.080963134765625 0.0
            CHANNELS 3 Zrotation Xrotation Yrotation
            JOINT LeftAnkle
            {
                OFFSET 0.0 -43.70472717285156 0.0
                CHANNELS 3 Zrotation Xrotation Yrotation
                JOINT LeftFoot
                {
                    OFFSET 0.0 -12.597090721130371 0.0
                    CHANNELS 3 Zrotation Xrotation Yrotation
                    End Site
                    {
                        OFFSET 0.0 0.0 5.0388360023498535
                    }
                }
            }
        }
    }
    JOINT RightHip
    {
        OFFSET -13.283145904541016 0.0 0.0
        CHANNELS 3 Zrotation Xrotation Yrotation
        JOINT RightKnee
        {
            OFFSET 0.0 -42.080963134765625 0.0
            CHANNELS 3 Zrotation Xrotation Yrotation
            JOINT RightAnkle
            {
                OFFSET 0.0 -43.70472717285156 0.0
                CHANNELS 3 Zrotation Xrotation Yrotation
                JOINT RightFoot
                {
                    OFFSET 0.0 -12.597090721130371 0.0
                    CHANNELS 3 Zrotation Xrotation Yrotation
                    End Site
                    {
                        OFFSET 0.0 0.0 5.0388360023498535
                    }
                }
            }
        }
    }
}
MOTION
Frames: 7
Frame Time: 0.03333333333333333
37.599998474121094 -8.199999809265137 -98.9000015258789 -2.5335784015514684 21.69468315022472 15.31050701536512 2.8457547766446045 5.067027629613677 -0.022005210521534976 -1.89375036332805e-07 -3.851781125989846e-07 -2.7943493366312464 97.99818044355044 0.4214476400343537 -159.84756659021275 -1.9467816512273063e-07 -1.0454806149184288e-07 63.657333324536346 179.99999963734192 -34.66360401705646 -135.51423450599881 0.0 0.0 3.975693351829396e-16 -95.78501948756772 29.02740665038116 171.29501209787395 -1.3025116817436407e-06 1.370578773916139e-07 -75.64426306526258 1.7440193604008732e-06 -37.19564204363477 -26.6396948029017 3.1805546814635176e-15 -7.951386703658792e-15 9.54166404439055e-15 26.243809044801463 -49.15406571244817 41.82121615576909 34.83852928678558 57.91274179215378 -105.16689053299578 88.11401344511242 -31.36917380170472 137.14395182034755 3.9756933518293955e-16 -1.987846675914698e-16 -8.34895603884173e-15 -31.955336414113685 -56.01715819315572 -81.39667408742152 -51.770935257995866 35.01904137472392 135.1810653550229 -85.75601121884515 -12.822468004816757 -165.64222917936758 -6.3611093629270335e-15 -3.1805546814635168e-15 -1.7655625192200634e-31
38.80000305175781 -8.5 -96.5999984741211 -2.5561306578719223 23.60844779294691 15.395287419869968 2.2572729125885154 4.9008319509945 -0.01258814965153226 5.541055646741455e-07 1.2880326217451108e-06 -2.2005198805740456 98.96171449827499 -3.050876034073666 -155.77479869090072 2.2424943461054032e-06 1.7359882566008555e-06 62.38977407665761 179.99999769203748 -36.43847485023245 -136.13080624970564 -1.1034765745125397e-32 -1.5902773407317584e-15 -7.951386703658792e-16 -95.17760772722951 29.416080936706653 166.53844989921816 -5.452128244707871e-07 1.6884461499882295e-06 -77.33442572012167 1.3501431532167707e-06 -43.413354048779404 -26.745220871876377 3.1805546814635176e-15 4.4139062980501586e-32 1.5902773407317588e-15 27.218678329064517 -51.91764588463721 48.47189731300484 33.60879469444536 46.2996922348951 -104.89987048596971 89.45459803847326 -32.84872171042933 149.09144378257298 2.385416011097637e-15 7.156248033292912e-15 -2.385416011097637e-15 -34.09495535933641 -56.646795178935484 -84.08195854186344 -53.779746636838404 34.33482668011503 137.80893571747507 -87.63479275432056 -12.22449454177427 -166.83401605558558 0.0 -6.3611093629270335e-15 0.0
40.099998474121094 -8.800000190734863 -94.4000015258789 -3.1221423715340455 25.69235965189583 15.269091199757078 1.7834728526158485 4.045788991884438 0.031278080628272906 2.0874235064455962e-07 1.1395504282291108e-06 -1.3609111801247 101.07055353442419 -7.12487209229153 -151.6125878757309 -9.495615711493473e-08 6.693358926855574e-07 61.668575735476395 179.99999382311452 -39.281068174182046 -137.42770974231797 2.2069531490250793e-32 -1.5902773407317584e-15 1.5902773407317584e-15 -94.03857253957344 29.59453102193133 160.90599436237903 6.899977762218383e-07 1.1778022221147145e-08 -78.13124263537183 -1.639032725139967e-06 -42.9501901555314 -28.011598440995304 3.1805546814635176e-15 -8.827812596100317e-32 -3.1805546814635176e-15 28.279040961979135 -53.46983305086514 49.846949799080356 26.642685047574265 35.6395534084487 -95.94603178783284 87.0768504794462 -39.03009273708468 153.22113202535397 1.5902773407317584e-15 -7.951386703658794e-16 -9.54166404439055e-15 -35.57425466176798 -57.75935807711292 -85.89196837048154 -55.490380596988295 34.19638428710966 139.65061933434447 -89.28484912423937 -11.362063163265784 -168.0305036801255 -6.3611093629270335e-15 -3.1805546814635164e-15 -7.951386703658792e-15
41.70000076293945 -9.0 -92.29999542236328 -3.7084118588111017 27.358520509442858 14.989086823580566 1.3686130011664606 4.171355181310717 0.05564339364585488 -8.599058596621723e-08 1.0945156978378246e-06 -0.7060644644616342 103.94214457516301 -11.063918956153797 -145.73831200969676 -1.3080874577278596e-06 -1.5779149429201367e-06 59.96532249562955 -179.99999916054895 -43.448736396652514 -137.5532111495343 1.3241718894150476e-31 3.1805546814635164e-15 -4.770832022195274e-15 -93.08932698702769 28.921233747829003 154.49272065991264 -5.1949791630420435e-06 6.59630794403647e-07 -79.20296783785801 -2.2271854995660506e-06 -45.248491127969665 -28.144507423212907 -3.1805546814635168e-15 6.3611093629270335e-15 4.770832022195275e-15 28.982331079888954 -54.45395373303491 51.94133913649556 22.71629252583595 24.876503333894842 -88.78719484841835 78.99765605381549 -50.986582275655834 150.6589070002434 0.0 0.0 1.5902773407317584e-15 -36.919706990988544 -58.11346088893262 -87.89181062528722 -56.64841451555745 34.00370553079137 141.15576029953013 -90.4893773119034 -10.852007581857277 -168.74167230207846 -6.3611093629270335e-15 -3.1805546814635164e-15 -7.951386703658792e-15
43.5 -9.5 -90.30000305175781 -4.807961999471461 28.375655674712675 14.173107462742939 1.7137852765168848 4.294819991214669 0.07302315145135385 4.401441418854243e-07 2.4771393835831866e-06 -0.36911540476657323 106.24349449493577 -14.037101038424424 -140.85793896518135 -2.163255735472883e-06 3.828680424171813e-07 58.73513309696682 -179.99999571578385 -51.447002963414896 -136.2047554769618 6.3611093629270335e-15 1.5902773407317584e-15 3.1805546814635168e-15 -92.0210547748134 27.010040103007725 148.31081161497258 -2.947066783331577e-06 -1.1328126206096035e-06 -80.66454312348228 8.345413441566122e-07 -48.51526149165948 -26.961644569881596 0.0 0.0 0.0 32.31720974613349 -55.13322193232467 55.701730192504236 20.12861481820196 19.84582158787709 -83.34077325303757 68.35035997459448 -59.068444540908764 142.68896497036414 2.648343778830095e-31 6.3611093629270335e-15 -4.770832022195275e-15 -37.99233870123277 -58.79717810181156 -91.27921851224416 -59.460366820653576 33.51854023087183 144.859436735477 -91.29766377748452 -9.822786180430453 -169.37676032618154 -5.5173828725626985e-31 -7.951386703658792e-15 -7.951386703658792e-15
46.099998474121094 -10.5 -88.5 -4.3160439344185955 29.441794356324742 12.827199171944711 0.9950732157519923 4.4919295224391345 0.16851229664021536 2.6962246563245823e-09 2.578029616243625e-06 -0.17901174763217007 108.57923886324325 -16.748782139494 -135.0701895921987 9.413638792090607e-07 -2.9901926964449248e-06 56.330403023852014 179.9999990773356 -61.098242662373664 -135.04417317201066 3.1805546814635168e-15 -1.5902773407317584e-15 -3.1805546814635168e-15 -92.21935247442273 24.773871527033513 141.95965025190807 -3.622875694368312e-07 1.0853476642509103e-07 -81.18576247743789 -1.6443983457342311e-06 -49.464682763066634 -26.70532994873875 6.361109362927033e-15 8.827812596100317e-32 1.5902773407317582e-15 33.52807017438696 -57.322238553100725 60.84358502001659 23.029916755141606 20.069373740244878 -87.21478667157471 67.43435713924345 -58.92652582044387 141.72062845450796 3.1805546814635168e-15 -6.3611093629270335e-15 1.7655625192200634e-31 -46.46793214727373 -59.48126761065055 -109.56302983070375 -67.29805417359177 25.826299503598438 155.815280062994 -88.42448845935613 -10.295800646289894 -167.41128956674697 -3.3104297235376187e-31 7.951386703658792e-15 4.770832022195275e-15
48.79999923706055 -11.699999809265137 -87.19999694824219 -4.945974844835849 31.111531904342705 10.559925865138755 1.702430040021091 3.947294266540794 0.12695376294200078 9.796564057532267e-08 1.278803578174131e-06 1.2852883012879077 111.23704704461439 -18.963950082740887 -129.11279452385958 -2.4356547189021283e-06 -2.143344008177621e-06 54.28412046217376 -179.99998140650328 -70.16140615502576 -130.37579943458016 0.0 0.0 -2.3854160110976376e-15 -92.31631560284883 22.28193050155925 135.50068026503197 1.745148385012654e-06 5.884602147508589e-07 -83.01249277357275 -2.693219176906749e-06 -52.37615745140668 -24.421711807194036 0.0 3.1805546814635168e-15 0.0 40.283552981891084 -60.237605291332166 72.74948776586542 31.239895419351104 24.010469052958424 -106.22909795171078 85.06982943107592 -46.578446549618725 157.39927519209942 0.0 0.0 -3.1805546814635164e-15 -60.85581177127242 -62.0629091027273 -133.02430976772877 -76.56362006840062 18.686873054272123 164.43290964120567 -79.01004655431292 -13.281564649640838 -156.13335273423564 1.5902773407317592e-15 -6.3611093629270335e-15 9.54166404439055e-15
